<mxfile host="app.diagrams.net" modified="2023-09-27T16:17:38.742Z" agent="Mozilla/5.0 (Windows NT 10.0; Win64; x64) AppleWebKit/537.36 (KHTML, like Gecko) Chrome/116.0.0.0 Safari/537.36" etag="Ml8gBNngMXpJ2-hHz50d" version="21.8.2" type="device">
  <diagram name="Page-1" id="fJ9747qxVuvLNfNndKeW">
    <mxGraphModel dx="611" dy="376" grid="1" gridSize="10" guides="1" tooltips="1" connect="1" arrows="1" fold="1" page="1" pageScale="1" pageWidth="850" pageHeight="1100" math="0" shadow="0">
      <root>
        <mxCell id="0" />
        <mxCell id="1" parent="0" />
        <mxCell id="8uyQ5eCVAXnhZ5HBbBjN-1" value="USER" style="swimlane;" vertex="1" parent="1">
          <mxGeometry x="80" y="160" width="200" height="200" as="geometry" />
        </mxCell>
        <mxCell id="8uyQ5eCVAXnhZ5HBbBjN-2" value="Email&lt;br&gt;Password&lt;br&gt;Username&lt;br&gt;Roles" style="text;html=1;align=center;verticalAlign=middle;resizable=0;points=[];autosize=1;strokeColor=none;fillColor=none;" vertex="1" parent="8uyQ5eCVAXnhZ5HBbBjN-1">
          <mxGeometry x="60" y="65" width="80" height="70" as="geometry" />
        </mxCell>
        <mxCell id="8uyQ5eCVAXnhZ5HBbBjN-4" value="GROUP" style="swimlane;" vertex="1" parent="1">
          <mxGeometry x="325" y="160" width="200" height="200" as="geometry" />
        </mxCell>
        <mxCell id="8uyQ5eCVAXnhZ5HBbBjN-5" value="Text" style="text;html=1;align=center;verticalAlign=middle;resizable=0;points=[];autosize=1;strokeColor=none;fillColor=none;" vertex="1" parent="1">
          <mxGeometry x="395" y="248" width="50" height="30" as="geometry" />
        </mxCell>
      </root>
    </mxGraphModel>
  </diagram>
</mxfile>
